# xmcd CD database file
#
# Track frame offsets:
#	150
#	35818
#	61110
#	82820
#	104033
#	129788
#	145493
#	166840
#	189945
#	214145
#	254313
#	278050
#	301710
#
# Disc length: 4345 seconds
#
# Revision: 9
# Processed by: cddbd v1.5.2PL0 Copyright (c) Steve Scherf et al.
# Submitted via: CDex 1.70beta2
#
DISCID=ad10f70d
DTITLE=THE ALFEE - DNA communication
DYEAR=1989
DGENRE=JPop
TTITLE0=Heart Of Justice
TTITLE1=悲しみが消える時 -you are the rock-
TTITLE2=Nervous Breakdown
TTITLE3=19 -nineteen-
TTITLE4=ふたりのGraduation
TTITLE5=Black Doctor
TTITLE6=Just Like America
TTITLE7=High-Heel Resistance
TTITLE8=Wind Tune
TTITLE9=DNA Odyssey
TTITLE10=Kitto
TTITLE11=Loving You
TTITLE12=Faith Of Love
EXTD=YEAR: 1989
EXTT0=
EXTT1=
EXTT2=
EXTT3=
EXTT4=
EXTT5=
EXTT6=
EXTT7=
EXTT8=
EXTT9=
EXTT10=
EXTT11=
EXTT12=
PLAYORDER=
